
<svg xmlns="http://www.w3.org/2000/svg" xmlns:xlink="http://www.w3.org/1999/xlink" viewBox="0 0 17.78 18.33" style="enable-background:new 0 0 17.78 18.33;" focusable="false" aria-hidden="true">
<path fill="#fff" d="M5.64,2.49l0.83-2.12c0.02-0.05,0.06-0.08,0.1-0.11c0.04-0.03,0.09-0.04,0.14-0.04c0.05,0,0.1,0.01,0.14,0.04
	c0.04,0.03,0.08,0.07,0.1,0.11L7.8,2.49l1.65,0.83c0.05,0.02,0.08,0.06,0.11,0.1c0.03,0.04,0.04,0.09,0.04,0.14s-0.01,0.1-0.04,0.14
	c-0.03,0.04-0.07,0.08-0.11,0.1L7.8,4.64L6.96,6.76C6.94,6.81,6.9,6.84,6.86,6.87C6.81,6.9,6.76,6.91,6.71,6.91
	c-0.05,0-0.1-0.01-0.14-0.04c-0.04-0.03-0.08-0.07-0.1-0.11L5.64,4.64L3.99,3.81c-0.05-0.02-0.08-0.06-0.11-0.1
	C3.85,3.66,3.84,3.61,3.84,3.56s0.01-0.1,0.04-0.14c0.03-0.04,0.07-0.08,0.11-0.1L5.64,2.49z"/>
<path fill="#fff" d="M4.33,8.25c0.04-0.07,0.09-0.13,0.16-0.17c0.07-0.04,0.14-0.06,0.22-0.06s0.16,0.02,0.22,0.06
	C5,8.12,5.05,8.18,5.09,8.25l0.48,1.17c-1.6,0.83-1.6,1.42,0.86,2.69l1.24,0.64c0.59,0.3,1.03,0.53,1.34,0.68L9,13.43l-0.02,0.01
	l-2.58,1.25l-1.3,3.2C5.05,17.96,5,18.02,4.93,18.06c-0.07,0.04-0.14,0.06-0.22,0.06c-0.08,0-0.15-0.02-0.22-0.06
	c-0.07-0.04-0.12-0.1-0.16-0.17l-1.31-3.2l-2.58-1.26c-0.07-0.03-0.13-0.08-0.17-0.15c-0.04-0.07-0.06-0.14-0.06-0.22
	c0-0.08,0.02-0.15,0.06-0.22c0.04-0.06,0.1-0.12,0.17-0.15l2.58-1.26L4.33,8.25z"/>
<path fill="#fff" d="M14.33,8.3l-1.5-3.83c-0.04-0.08-0.1-0.15-0.18-0.2c-0.08-0.05-0.17-0.07-0.26-0.07
	c-0.09,0-0.18,0.03-0.26,0.07c-0.08,0.05-0.14,0.12-0.18,0.2L10.44,8.3l-2.97,1.5c-0.08,0.04-0.15,0.1-0.2,0.18
	c-0.05,0.08-0.07,0.17-0.07,0.26s0.03,0.18,0.07,0.26c0.05,0.08,0.12,0.14,0.2,0.18l2.97,1.5l1.5,3.83c0.04,0.08,0.1,0.15,0.18,0.2
	c0.08,0.05,0.17,0.07,0.26,0.07s0.18-0.03,0.26-0.07c0.08-0.05,0.14-0.12,0.18-0.2l1.5-3.83l2.97-1.51c0.08-0.04,0.15-0.1,0.2-0.18
	c0.05-0.08,0.07-0.17,0.07-0.26c0-0.09-0.03-0.18-0.07-0.26c-0.05-0.08-0.12-0.14-0.2-0.18L14.33,8.3z"/>
</svg>