<svg xmlns="http://www.w3.org/2000/svg" xmlns:xlink="http://www.w3.org/1999/xlink" viewBox="0 0 25.99 25.91" style="enable-background:new 0 0 25.99 25.91;" xml:space="preserve" focusable="false" aria-hidden="true">
<g>
	<path style="fill:none;stroke:#1D1E1D;stroke-width:1.8;stroke-linejoin:round;" class="st0" d="M21.14,10.35h0.96c1.6,0,2.9,1.3,2.9,2.9v8.83c0,1.6-1.3,2.9-2.9,2.9H11.62c-1.6,0-2.9-1.3-2.9-2.9V7.32"/>
	<path style="fill:none;stroke:#1D1E1D;stroke-width:1.8;stroke-linejoin:round;" class="st0" d="M4.86,17.25H3.89c-1.6,0-2.9-1.3-2.9-2.9V3.87c0-1.6,1.3-2.9,2.9-2.9h10.48c1.6,0,2.9,1.3,2.9,2.9V7.6"/>
	<path style="fill:none;stroke:#1D1E1D;stroke-width:1.6;stroke-linecap:round;stroke-linejoin:round;" class="st1" d="M14.79,18.08h4.14"/>
	<path style="fill:none;stroke:#1D1E1D;stroke-width:1.6;stroke-linecap:round;stroke-linejoin:round;" class="st1" d="M13.13,20.83l3.44-7.47c0.15-0.32,0.6-0.32,0.75,0l3.53,7.47"/>
	<path style="fill:none;stroke:#1D1E1D;stroke-width:1.8;stroke-linecap:round;stroke-linejoin:round;" class="st2" d="M13.69,5.11l3.31,2.8c0.16,0.13,0.39,0.13,0.55-0.01l3.04-2.79"/>
	<path style="fill:none;stroke:#1D1E1D;stroke-width:1.8;stroke-linecap:round;stroke-linejoin:round;" class="st2" d="M12.31,9.53L9,6.73C8.84,6.59,8.61,6.6,8.46,6.74L5.41,9.53"/>
</g>
</svg>
