
<svg xmlns="http://www.w3.org/2000/svg" width="18" height="18" viewBox="0 0 18 18">
  <g id="그룹_1965" data-name="그룹 1965" transform="translate(-2 -6)">
    <g id="그룹_1964" data-name="그룹 1964" transform="translate(-272 -273)">
      <g id="그룹_1963" data-name="그룹 1963" transform="translate(276 283.425)">
        <line id="선_461" data-name="선 461" x1="1.907" transform="translate(0 9.535)" fill="none" stroke="#000" stroke-linecap="round" stroke-linejoin="round" stroke-width="1.5"/>
        <line id="선_462" data-name="선 462" x1="7.628" transform="translate(6.675 9.535)" fill="none" stroke="#000" stroke-linecap="round" stroke-linejoin="round" stroke-width="1.5"/>
        <line id="선_463" data-name="선 463" x1="7.628" transform="translate(0 4.768)" fill="none" stroke="#000" stroke-linecap="round" stroke-linejoin="round" stroke-width="1.5"/>
        <line id="선_464" data-name="선 464" x1="1.907" transform="translate(12.396 4.768)" fill="none" stroke="#000" stroke-linecap="round" stroke-linejoin="round" stroke-width="1.5"/>
        <line id="선_465" data-name="선 465" x1="1.907" transform="translate(0 0)" fill="none" stroke="#000" stroke-linecap="round" stroke-linejoin="round" stroke-width="1.5"/>
        <line id="선_466" data-name="선 466" x1="7.628" transform="translate(6.675 0)" fill="none" stroke="#000" stroke-linecap="round" stroke-linejoin="round" stroke-width="1.5"/>
      </g>
      <path id="패스_469" data-name="패스 469" d="M290.89,290.594a.995.995,0,1,1-.995-.995,1,1,0,0,1,.995.995m1.431,0a2.426,2.426,0,1,0-2.426,2.426,2.426,2.426,0,0,0,2.426-2.426Z" transform="translate(-3.841 -2.401)"/>
      <path id="패스_470" data-name="패스 470" d="M282.288,283.426a.995.995,0,1,1-.995-1,1,1,0,0,1,.995,1m1.431,0a2.426,2.426,0,1,0-2.426,2.425,2.426,2.426,0,0,0,2.426-2.425Z" transform="translate(-0.96)"/>
      <path id="패스_471" data-name="패스 471" d="M282.288,297.762a.995.995,0,1,1-.995-.995,1,1,0,0,1,.995.995m1.431,0a2.426,2.426,0,1,0-2.426,2.426,2.425,2.425,0,0,0,2.426-2.426Z" transform="translate(-0.96 -4.802)"/>
    </g>
    <rect id="사각형_1649" data-name="사각형 1649" width="18" height="18" transform="translate(2 6)" fill="none"/>
  </g>
</svg>
