<svg xmlns="http://www.w3.org/2000/svg" width="20" height="20.004" viewBox="0 0 20 20.004">
  <g id="_360_icon_" data-name="360_icon_" transform="translate(-2403.5 -2044.5)">
    <g id="그룹_9064" data-name="그룹 9064" transform="translate(2403.5 2055.748)">
      <path id="합치기_6" data-name="합치기 6" d="M.345,4.43A.457.457,0,0,1,0,4.018V.447A.458.458,0,0,1,.345.034a.662.662,0,0,1,.608.1L3.185,1.917a.388.388,0,0,1,0,.632L.952,4.334a.634.634,0,0,1-.394.131A.683.683,0,0,1,.345,4.43Z" transform="translate(7.777 4.292)"/>
      <path id="패스_8731" data-name="패스 8731" d="M2373.7,2101.995c-3.272,0-7.562-.855-9.023-2.3a1.652,1.652,0,0,1-.561-1.18c0-2.305,5.077-3.55,9.853-3.55a24.234,24.234,0,0,1,6.845.924c2.16.67,3.3,1.578,3.3,2.625,0,.975-1,1.807-2.957,2.473a18.3,18.3,0,0,1-4.3.874h-.031a.5.5,0,0,1-.03-1,17.485,17.485,0,0,0,4.042-.823c1.678-.57,2.277-1.161,2.277-1.523,0-.4-.68-1.072-2.6-1.667a23.2,23.2,0,0,0-6.548-.879,22.144,22.144,0,0,0-6.4.858c-1.809.578-2.453,1.251-2.453,1.688a.754.754,0,0,0,.261.465c1.106,1.09,4.934,2.007,8.3,2.007l.277,0h.008a.5.5,0,0,1,.007,1Z" transform="translate(-2364.114 -2094.969)"/>
    </g>
    <path id="패스_8730" data-name="패스 8730" d="M4.721-2.416a1.964,1.964,0,0,0-1.77-2.072L4.506-6.1v-.975H.413V-6.1H3.288L1.359-4.057,1.79-3.5A2.841,2.841,0,0,1,2.4-3.579a1.079,1.079,0,0,1,1.18,1.162A1.125,1.125,0,0,1,2.324-1.2,3.548,3.548,0,0,1,.675-1.685L.254-.766a3.79,3.79,0,0,0,2.07.6A2.2,2.2,0,0,0,4.721-2.416Zm5.506-.028A1.989,1.989,0,0,0,8.214-4.619a2.457,2.457,0,0,0-.749.112c.075-.094.2-.234.356-.422l1.4-1.594L8.345-7.2,6.959-5.529a6.451,6.451,0,0,0-1,1.547,3.609,3.609,0,0,0-.29,1.462A2.2,2.2,0,0,0,7.97-.166,2.144,2.144,0,0,0,10.227-2.444Zm-1.133.028c0,.8-.421,1.275-1.124,1.275-.74,0-1.18-.516-1.18-1.387A2.273,2.273,0,0,1,7-3.522a2.034,2.034,0,0,1,.9-.206A1.156,1.156,0,0,1,9.094-2.416Zm2-1.266c0,2.409.777,3.515,2.36,3.515s2.36-1.106,2.36-3.515c0-2.428-.768-3.515-2.369-3.515C11.865-7.2,11.1-6.11,11.1-3.682Zm3.578,0c0,1.753-.365,2.522-1.218,2.522S12.24-1.929,12.24-3.682,12.614-6.2,13.448-6.2C14.3-6.2,14.675-5.435,14.675-3.682Z" transform="translate(2405.246 2054.197)"/>
    <g id="타원_253" data-name="타원 253" transform="translate(2420.984 2044.5)" fill="none" stroke="#000" stroke-width="0.8">
      <circle cx="1.25" cy="1.25" r="1.25" stroke="none"/>
      <circle cx="1.25" cy="1.25" r="0.85" fill="none"/>
    </g>
  </g>
</svg>
