<svg xmlns="http://www.w3.org/2000/svg" width="18" height="18" viewBox="0 0 18 18">
  <g id="그룹_3337" data-name="그룹 3337" transform="translate(-3.366 -3.362)">
    <path id="패스_1704" data-name="패스 1704" d="M19.366,38.448V37.366h8.7v1.082Z" transform="translate(-12.35 -26.541)"/>
    <path id="패스_1705" data-name="패스 1705" d="M11.366,4.462a6.9,6.9,0,1,1-6.9,6.9,6.9,6.9,0,0,1,6.9-6.9m0-1.1a8,8,0,1,0,8,8,8,8,0,0,0-8-8Z"/>
    <path id="패스_8726" data-name="패스 8726" d="M856.032,815.623a.535.535,0,0,1-.38-.157l-4.026-4.026a.537.537,0,0,1,.759-.759l4.026,4.026a.537.537,0,0,1-.38.916Z" transform="translate(-835.203 -794.261)"/>
  </g>
</svg>
