<svg xmlns="http://www.w3.org/2000/svg" width="18" height="18" viewBox="0 0 18 18">
  <g id="그룹_3336" data-name="그룹 3336" transform="translate(-3.366 -3.362)">
    <path id="패스_1702" data-name="패스 1702" d="M24.434,19.366v3.966H28.4v1.1H24.434V28.4h-1.1V24.434H19.366v-1.1h3.966V19.366Z" transform="translate(-12.517 -12.517)"/>
    <path id="패스_1703" data-name="패스 1703" d="M11.366,4.462a6.9,6.9,0,1,1-6.9,6.9,6.9,6.9,0,0,1,6.9-6.9m0-1.1a8,8,0,1,0,8,8,8,8,0,0,0-8-8Z"/>
    <path id="패스_8727" data-name="패스 8727" d="M856.032,815.623a.535.535,0,0,1-.38-.157l-4.026-4.026a.537.537,0,0,1,.759-.759l4.026,4.026a.537.537,0,0,1-.38.916Z" transform="translate(-835.203 -794.261)"/>
  </g>
</svg>
