
<svg xmlns="http://www.w3.org/2000/svg" xmlns:xlink="http://www.w3.org/1999/xlink" width="14.707" height="12" viewBox="0 0 14.707 12">
  <defs>
    <clipPath id="clip-path">
      <rect id="사각형_7903" data-name="사각형 7903" width="14.707" height="12" fill="none"/>
    </clipPath>
  </defs>
  <g id="그룹_39990" data-name="그룹 39990" clip-path="url(#clip-path)">
    <path id="패스_9088" data-name="패스 9088" d="M4.693,7.154,8.078,2.989H6.232a2.271,2.271,0,0,0-1.9.842L2.55,6.023V0H.762A.762.762,0,0,0,0,.764V12H1.788a.762.762,0,0,0,.762-.763V8.248L4,10.026,5.23,11.544A1.149,1.149,0,0,0,6.142,12h2.5L7.024,10.019Zm7.823,2.725a.686.686,0,0,1-.683-.685V0H10.044a.763.763,0,0,0-.763.762V9.673A2.22,2.22,0,0,0,11.61,12h1.965a.763.763,0,0,0,.764-.763V9.879Z" transform="translate(0 0)" fill="#1a1818"/>
    <path id="패스_9089" data-name="패스 9089" d="M13.238,14.412l0,0-.006,0Zm11.914-1.7,0-1.693-.156.167a2.679,2.679,0,0,1-1.86.492h-6.5a2.167,2.167,0,0,0-1.879.871l-.2.247a.2.2,0,0,1-.019.021l-1.29,1.589a2.985,2.985,0,0,1,1.768-.567h8.123c.985,0,1.932-.289,2.01-1.028a.5.5,0,0,0,.009-.1" transform="translate(-10.444 -8.696)" fill="#e50019"/>
  </g>
</svg>
