
<svg xmlns="http://www.w3.org/2000/svg" xmlns:xlink="http://www.w3.org/1999/xlink" width="43.302" height="12" viewBox="0 0 43.302 12">
  <defs>
    <clipPath id="clip-path">
      <rect id="사각형_7918" data-name="사각형 7918" width="43.302" height="12" transform="translate(0 0)" fill="none"/>
    </clipPath>
  </defs>
  <g id="LGU_" data-name="LGU+" transform="translate(0 0)" clip-path="url(#clip-path)">
    <path id="패스_9099" data-name="패스 9099" d="M6,12A6,6,0,1,0,0,6a6,6,0,0,0,6,6" transform="translate(0 0)" fill="#af0030"/>
    <path id="패스_9100" data-name="패스 9100" d="M46.526,27.19v5.264H48.2v-.473H47.008V27.19Z" transform="translate(-40.763 -23.822)" fill="#fff"/>
    <path id="패스_9101" data-name="패스 9101" d="M27.911,28.6a.72.72,0,1,0-.719-.719.72.72,0,0,0,.719.719" transform="translate(-23.824 -23.798)" fill="#fff"/>
    <path id="패스_9102" data-name="패스 9102" d="M13.167,7.856c-.063,0-.182-.007-.239-.007a5.025,5.025,0,1,0,5.025,5.026v-.223h-3.59v.463h3.111c0,.01,0,.059,0,.072A4.555,4.555,0,0,1,9.705,16.1a4.554,4.554,0,0,1,3.222-7.774c.053,0,.18,0,.239,0Z" transform="translate(-6.921 -6.877)" fill="#fff"/>
    <path id="패스_9103" data-name="패스 9103" d="M310.141,3.128V1.16h-1.452V3.128H306.77V4.516h1.919V6.461h1.452V4.516h1.932V3.128Z" transform="translate(-268.771 -1.016)" fill="#5a5b5e"/>
    <path id="패스_9104" data-name="패스 9104" d="M246.362,16.916v4.453c0,1.247-.619,1.861-1.667,1.861s-1.667-.613-1.667-1.861V16.916h-1.771V21.4c0,2.463,1.311,3.388,3.374,3.388h.127c2.064,0,3.374-.925,3.374-3.388v-4.48Z" transform="translate(-211.374 -14.821)" fill="#5a5b5e"/>
    <path id="패스_9105" data-name="패스 9105" d="M120.727,24.664h3.288v-1.51H120.3V16.909h-1.792v7.756Z" transform="translate(-103.832 -14.814)" fill="#5a5b5e"/>
    <path id="패스_9106" data-name="패스 9106" d="M168.424,20.891h1.459v1.356a4.113,4.113,0,0,1-1.293.205c-1.613,0-2.151-.819-2.151-2.483,0-1.587.512-2.521,2.124-2.521a2.076,2.076,0,0,1,1.83.819l1.114-1.024a3.487,3.487,0,0,0-2.983-1.267c-2.509,0-3.826,1.369-3.826,3.98s1.19,4.006,3.814,4.006a5.7,5.7,0,0,0,3.021-.755V19.444h-3.11Z" transform="translate(-144.299 -13.997)" fill="#5a5b5e"/>
  </g>
</svg>
