
<svg xmlns="http://www.w3.org/2000/svg" xmlns:xlink="http://www.w3.org/1999/xlink" width="67.488" height="12" viewBox="0 0 67.488 12">
  <defs>
    <clipPath id="clip-path">
      <rect id="사각형_7904" data-name="사각형 7904" width="67.488" height="12" fill="none"/>
    </clipPath>
  </defs>
  <g id="그룹_39994" data-name="그룹 39994" clip-path="url(#clip-path)">
    <path id="패스_9090" data-name="패스 9090" d="M5.137,4.733c-.969-.455-1.766-.822-1.766-1.563,0-.568.452-.981,1.349-.981a4.576,4.576,0,0,1,.877.09,2.754,2.754,0,0,0,.431.047c.784,0,1.225-.467,1.519-1.353L7.669.613A8.178,8.178,0,0,0,4.6,0C1.942,0,.542,1.7.542,3.467a2.987,2.987,0,0,0,.716,2.045A6.422,6.422,0,0,0,3.372,6.959c1.094.536,2.08.933,2.08,1.728,0,.707-.728,1.107-1.7,1.107A5.318,5.318,0,0,1,1.1,8.939L0,10.994A7.586,7.586,0,0,0,3.932,12c2.477,0,4.351-1.42,4.351-3.605S6.547,5.415,5.137,4.733" transform="translate(0 0)" fill="#ea002c"/>
    <path id="패스_9091" data-name="패스 9091" d="M74.725,7.216l4.492-5.507h-3.2L72.433,6.461h-.054V1.709H69.742V13.376H69.9a2.267,2.267,0,0,0,2.5-2.433V8.264h.053L76.1,13.231h3.357Z" transform="translate(-59.901 -1.468)" fill="#ea002c"/>
    <path id="패스_9092" data-name="패스 9092" d="M415.935,37.626a2.8,2.8,0,0,0-2.213,1.053,1.977,1.977,0,0,0-1.839-1.053,2.841,2.841,0,0,0-2.032.824,1.037,1.037,0,0,0-1.09-.708,3.4,3.4,0,0,0-.59.079,9.112,9.112,0,0,1,.182,1.868V44.08h1.607V39.6a2.2,2.2,0,0,1,1.356-.637c.738,0,1.083.54,1.083,1.276V44.08h1.613V39.6a2.148,2.148,0,0,1,1.356-.635c.733,0,1.072.54,1.072,1.276V44.08h1.621V39.994a2.107,2.107,0,0,0-2.126-2.368" transform="translate(-350.573 -32.317)" fill="#ff7a00"/>
    <path id="패스_9093" data-name="패스 9093" d="M317.078,42.9a2,2,0,0,1,0-4c.53,0,.754.162,1.106.162a.8.8,0,0,0,.762-.543c.1-.2.163-.316.163-.316a4.154,4.154,0,0,0-2.274-.6,3.3,3.3,0,0,0,0,6.6,4.029,4.029,0,0,0,2.3-.65l-.558-1.1a2.8,2.8,0,0,1-1.5.45" transform="translate(-269.343 -32.299)" fill="#ff7a00"/>
    <path id="패스_9094" data-name="패스 9094" d="M194.82,40.226a1.24,1.24,0,1,1,2.461,0Zm1.24-2.6c-1.539,0-2.84,1.253-2.84,3.3a2.98,2.98,0,0,0,3.144,3.291,3.806,3.806,0,0,0,2.366-.714l-.187-.3a.8.8,0,0,0-.715-.454c-.529,0-.6.219-1.315.219a1.621,1.621,0,0,1-1.689-1.6h4.126v-.478c0-1.968-1.134-3.263-2.89-3.263" transform="translate(-165.954 -32.317)" fill="#ff7a00"/>
    <path id="패스_9095" data-name="패스 9095" d="M243.525,22.729V16.154a1.239,1.239,0,0,0-1.264-1.317h-.344v8.538a1.2,1.2,0,0,0,1.333,1.273,1.282,1.282,0,0,0,1.358-1.441,1.231,1.231,0,0,1-.489.114.542.542,0,0,1-.593-.591" transform="translate(-207.779 -12.743)" fill="#ff7a00"/>
    <path id="패스_9096" data-name="패스 9096" d="M160.093,31.275V28.149h1.343l.469-1.211h-1.812V25.047s-.144,0-.15,0c-.716,0-1.458.305-1.458,1.877v.014h-1.19v1.211h1.19v3.681A1.557,1.557,0,1,0,161.6,31.8a1.588,1.588,0,0,1-.773.253c-.524,0-.731-.319-.731-.78" transform="translate(-135.099 -21.512)" fill="#ff7a00"/>
    <path id="패스_9097" data-name="패스 9097" d="M266.327,40.226a1.239,1.239,0,1,1,2.459,0Zm1.238-2.6c-1.539,0-2.838,1.253-2.838,3.3a2.98,2.98,0,0,0,3.145,3.291,3.8,3.8,0,0,0,2.364-.714s-.145-.238-.186-.3a.8.8,0,0,0-.715-.454c-.531,0-.6.219-1.316.219a1.619,1.619,0,0,1-1.687-1.6h4.123v-.478c0-1.968-1.134-3.263-2.889-3.263" transform="translate(-227.371 -32.317)" fill="#ff7a00"/>
    <path id="패스_9098" data-name="패스 9098" d="M359.776,42.966c.987,0,1.555-.848,1.555-2.058s-.555-2.066-1.555-2.066c-.97,0-1.552.841-1.552,2.066,0,1.18.554,2.058,1.552,2.058m0,1.238a3,3,0,0,1-3.152-3.3,3.157,3.157,0,1,1,6.307,0,3,3,0,0,1-3.155,3.3" transform="translate(-306.3 -32.299)" fill="#ff7a00"/>
  </g>
</svg>
