<?xml version="1.0" encoding="utf-8"?>
<!-- Generator: Adobe Illustrator 26.3.1, SVG Export Plug-In . SVG Version: 6.00 Build 0)  -->
<svg version="1.1" id="Gift" xmlns="http://www.w3.org/2000/svg" xmlns:xlink="http://www.w3.org/1999/xlink" x="0px" y="0px"
	 viewBox="0 0 18 18" style="enable-background:new 0 0 18 18;" xml:space="preserve">
<path id="gift-2" d="M12.7,1c1.1,0,2,0.9,2,1.9c0,0.2,0,0.5-0.1,0.7h1.8c0.4,0,0.7,0.3,0.7,0.6v0V8c0,0.3-0.3,0.6-0.6,0.7l0,0h-0.9
	v7.7c0,0.3-0.3,0.6-0.6,0.7h0H3.2c-0.4,0-0.7-0.3-0.7-0.6l0,0V8.6H1.7C1.3,8.6,1,8.4,1,8l0,0V4.3c0-0.3,0.3-0.6,0.6-0.7l0,0h1.8
	C3,2.6,3.5,1.5,4.5,1.1C5.1,0.9,5.7,1,6.2,1.2l0,0l0.1,0l0.1,0C6.5,1.4,6.7,1.5,7,1.6l0.1,0C7.6,2,8.2,2.5,9,3L8.9,3.1l0.2-0.2
	c0.6-0.5,1.2-0.9,1.7-1.2L11,1.7c0.3-0.2,0.6-0.3,0.7-0.4l0.1,0l0,0C12.1,1.1,12.4,1,12.7,1L12.7,1z M6.6,8.6H3.5v7.4h3.1V8.6z
	 M10.4,8.6H7.6v7.4h2.9V8.6z M14.5,8.6h-3.1v7.4h3.1V8.6z M6.6,4.5H2v3.2h4.6V4.5z M10.4,4.5H7.6v3.2h2.9V4.5z M16,4.5h-4.6v3.2H16
	V4.5z M12.7,1.9c-0.2,0-0.3,0-0.5,0.1l0,0l0,0l0,0c0,0-0.1,0-0.2,0.1c-0.1,0.1-0.3,0.2-0.5,0.3l-0.1,0c-0.5,0.3-1,0.7-1.7,1.1h3.6
	c0.4-0.4,0.4-1,0.1-1.4C13.3,2,13,1.9,12.7,1.9z M5.3,1.9c-0.5,0-1,0.4-1,1c0,0.3,0.1,0.5,0.3,0.7h3.6C7.6,3.2,7.1,2.8,6.6,2.5
	l-0.1,0C6.3,2.4,6.2,2.3,6,2.2L6,2.2c-0.1,0-0.1,0-0.1-0.1l-0.1,0l0,0C5.6,2,5.4,1.9,5.3,1.9L5.3,1.9z"/>
</svg>
