<svg xmlns="http://www.w3.org/2000/svg" xmlns:xlink="http://www.w3.org/1999/xlink" width="22" height="15.001" viewBox="0 0 22 15.001">
  <defs>
    <clipPath id="clip-path">
      <rect width="22" height="15.001" fill="none"/>
    </clipPath>
  </defs>
  <g id="반복_그리드_2" data-name="반복 그리드 2" clip-path="url(#clip-path)">
    <g id="그룹_9021" data-name="그룹 9021" transform="translate(-1284 -543.999)">
      <g id="빼기_7" data-name="빼기 7" transform="translate(7483 546)" fill="#2189ff" stroke-linecap="round" stroke-linejoin="round">
        <path d="M -6178.99951171875 12.49979496002197 L -6196.99951171875 12.49979496002197 C -6197.82666015625 12.49979496002197 -6198.5 11.82728481292725 -6198.5 11.00066471099854 L -6198.5 5.110931397211971e-06 C -6198.5 -0.8274748921394348 -6197.82666015625 -1.500684857368469 -6196.99951171875 -1.500684857368469 L -6178.99951171875 -1.500684857368469 C -6178.1728515625 -1.500684857368469 -6177.50048828125 -0.8274748921394348 -6177.50048828125 5.110931397211971e-06 L -6177.50048828125 2.670700550079346 C -6178.68017578125 3.088535785675049 -6179.49951171875 4.219170570373535 -6179.49951171875 5.499555110931396 C -6179.49951171875 6.780263900756836 -6178.68017578125 7.910922527313232 -6177.50048828125 8.32853889465332 L -6177.50048828125 11.00066471099854 C -6177.50048828125 11.82728481292725 -6178.1728515625 12.49979496002197 -6178.99951171875 12.49979496002197 Z" stroke="none"/>
        <path d="M -6178.99951171875 11.99979496002197 C -6178.44873046875 11.99979496002197 -6178.00048828125 11.55158519744873 -6178.00048828125 11.00066471099854 L -6178.00048828125 8.661908149719238 C -6179.1953125 8.09257698059082 -6179.99951171875 6.869593620300293 -6179.99951171875 5.499555110931396 C -6179.99951171875 4.129754066467285 -6179.1953125 2.90682053565979 -6178.00048828125 2.337363481521606 L -6178.00048828125 5.110931397211971e-06 C -6178.00048828125 -0.5517748594284058 -6178.44873046875 -1.000684857368469 -6178.99951171875 -1.000684857368469 L -6196.99951171875 -1.000684857368469 C -6197.55126953125 -1.000684857368469 -6198 -0.5517748594284058 -6198 5.110931397211971e-06 L -6198 11.00066471099854 C -6198 11.55158519744873 -6197.55126953125 11.99979496002197 -6196.99951171875 11.99979496002197 L -6178.99951171875 11.99979496002197 M -6178.99951171875 12.99979496002197 L -6196.99951171875 12.99979496002197 C -6198.1025390625 12.99979496002197 -6199 12.10298538208008 -6199 11.00066471099854 L -6199 5.110931397211971e-06 C -6199 -1.103174924850464 -6198.1025390625 -2.000684976577759 -6196.99951171875 -2.000684976577759 L -6178.99951171875 -2.000684976577759 C -6177.8974609375 -2.000684976577759 -6177.00048828125 -1.103174924850464 -6177.00048828125 5.110931397211971e-06 L -6177.00048828125 3.049675226211548 C -6178.1591796875 3.285265207290649 -6178.99951171875 4.31517505645752 -6178.99951171875 5.499555110931396 C -6178.99951171875 6.683915138244629 -6178.15869140625 7.7142653465271 -6177.00048828125 7.949485301971436 L -6177.00048828125 11.00066471099854 C -6177.00048828125 12.10298538208008 -6177.8974609375 12.99979496002197 -6178.99951171875 12.99979496002197 Z" stroke="none" fill="#000"/>
      </g>
      <g id="사각형_3840" data-name="사각형 3840" transform="translate(1284 544)" fill="#fff" stroke="#000" stroke-width="1">
        <path d="M2,0H16a0,0,0,0,1,0,0V15a0,0,0,0,1,0,0H2a2,2,0,0,1-2-2V2A2,2,0,0,1,2,0Z" stroke="none"/>
        <path d="M2,.5H15.5a0,0,0,0,1,0,0v14a0,0,0,0,1,0,0H2A1.5,1.5,0,0,1,.5,13V2A1.5,1.5,0,0,1,2,.5Z" fill="none"/>
      </g>
      <g id="그룹_8879" data-name="그룹 8879" transform="translate(-25.6 -0.436)">
        <path id="패스_8723" data-name="패스 8723" d="M32.644,15.557a1.925,1.925,0,0,1-.5-.066,1.887,1.887,0,0,1-1.153-.88,1.857,1.857,0,0,1-.187-1.43,1.907,1.907,0,0,1,2.333-1.326,1.886,1.886,0,0,1,1.153.88,1.856,1.856,0,0,1,.186,1.43,1.875,1.875,0,0,1-.889,1.141,1.905,1.905,0,0,1-.944.251m0-2.482a.6.6,0,0,0-.583.442.587.587,0,0,0,.059.454.605.605,0,0,0,1.106-.141.588.588,0,0,0-.059-.454A.6.6,0,0,0,32.8,13.1a.606.606,0,0,0-.157-.021" transform="translate(1282.862 535.346)" fill="#2189ff"/>
        <path id="패스_8724" data-name="패스 8724" d="M45.428,27.507a1.949,1.949,0,0,1-.5-.067,1.9,1.9,0,0,1-1.352-2.331,1.927,1.927,0,0,1,3.518-.45,1.871,1.871,0,0,1,.188,1.443,1.892,1.892,0,0,1-.9,1.152,1.925,1.925,0,0,1-.953.253m0-2.516a.622.622,0,0,0-.6.455.6.6,0,0,0,.061.466.623.623,0,0,0,1.138-.146.6.6,0,0,0-.061-.467.617.617,0,0,0-.376-.287.625.625,0,0,0-.162-.021" transform="translate(1274.24 529.261)" fill="#2189ff"/>
        <path id="패스_8725" data-name="패스 8725" d="M33.513,19.747a.65.65,0,0,1-.456-.185.638.638,0,0,1-.007-.909l5.193-5.219a.654.654,0,0,1,.919-.007.638.638,0,0,1,.007.909l-5.193,5.219a.65.65,0,0,1-.463.192" transform="translate(1281.427 535.361)" fill="#2189ff"/>
      </g>
    </g>
  </g>
</svg>
