<svg id="Refresh" xmlns="http://www.w3.org/2000/svg" width="20" height="20" viewBox="0 0 20 20">
  <rect id="Container" width="20" height="20" fill="none"/>
  <path id="합치기_4" data-name="합치기 4" d="M-3687-2000.448a8.772,8.772,0,0,1,6.6-8.444l.357-.092.357,1.391-.245.06a7.323,7.323,0,0,0-5.619,7.085,7.386,7.386,0,0,0,7.447,7.306,7.385,7.385,0,0,0,7.446-7.306,7.252,7.252,0,0,0-3.681-6.305v3.276h-1.45V-2009h5.589v1.433h-2.743a8.718,8.718,0,0,1,3.735,7.119,8.829,8.829,0,0,1-8.9,8.739A8.829,8.829,0,0,1-3687-2000.448Z" transform="translate(3688.346 2010.407)"/>
</svg>
